<mxfile host="Electron" agent="Mozilla/5.0 (X11; Linux x86_64) AppleWebKit/537.36 (KHTML, like Gecko) draw.io/27.0.9 Chrome/134.0.6998.205 Electron/35.4.0 Safari/537.36" version="27.0.9">
  <diagram name="Page-1" id="SBLfNq8JYjq96ZqPvEaa">
    <mxGraphModel dx="2000" dy="843" grid="1" gridSize="10" guides="1" tooltips="1" connect="1" arrows="1" fold="1" page="1" pageScale="1" pageWidth="850" pageHeight="1100" math="0" shadow="0">
      <root>
        <mxCell id="0" />
        <mxCell id="1" parent="0" />
        <mxCell id="LTkT88SjbKarFFaRrxIB-1" value="&lt;b&gt;deployment&lt;/b&gt; MonGe" style="shape=umlFrame;whiteSpace=wrap;html=1;pointerEvents=0;width=130;height=30;" vertex="1" parent="1">
          <mxGeometry x="70" y="130" width="1000" height="770" as="geometry" />
        </mxCell>
        <mxCell id="LTkT88SjbKarFFaRrxIB-2" value="&amp;lt;&amp;lt;device&amp;gt;&amp;gt;srv-01: Proxmox" style="verticalAlign=top;align=left;spacingTop=8;spacingLeft=2;spacingRight=12;shape=cube;size=10;direction=south;fontStyle=4;html=1;whiteSpace=wrap;" vertex="1" parent="1">
          <mxGeometry x="100" y="180" width="430" height="330" as="geometry" />
        </mxCell>
        <mxCell id="LTkT88SjbKarFFaRrxIB-3" value="&amp;lt;&amp;lt;web server&amp;gt;&amp;gt; : NGINX" style="verticalAlign=top;align=left;spacingTop=8;spacingLeft=2;spacingRight=12;shape=cube;size=10;direction=south;fontStyle=4;html=1;whiteSpace=wrap;" vertex="1" parent="1">
          <mxGeometry x="120" y="230" width="380" height="260" as="geometry" />
        </mxCell>
        <mxCell id="LTkT88SjbKarFFaRrxIB-13" style="edgeStyle=orthogonalEdgeStyle;rounded=0;orthogonalLoop=1;jettySize=auto;html=1;dashed=1;dashPattern=8 8;endArrow=open;endFill=0;" edge="1" parent="1" source="LTkT88SjbKarFFaRrxIB-5" target="LTkT88SjbKarFFaRrxIB-10">
          <mxGeometry relative="1" as="geometry" />
        </mxCell>
        <mxCell id="LTkT88SjbKarFFaRrxIB-20" style="edgeStyle=orthogonalEdgeStyle;rounded=0;orthogonalLoop=1;jettySize=auto;html=1;entryX=0;entryY=1;entryDx=0;entryDy=0;dashed=1;dashPattern=8 8;endArrow=open;endFill=0;" edge="1" parent="1" source="LTkT88SjbKarFFaRrxIB-5" target="LTkT88SjbKarFFaRrxIB-17">
          <mxGeometry relative="1" as="geometry">
            <Array as="points">
              <mxPoint x="335" y="370" />
              <mxPoint x="335" y="445" />
            </Array>
          </mxGeometry>
        </mxCell>
        <mxCell id="LTkT88SjbKarFFaRrxIB-5" value="«Component»&lt;br&gt;&lt;b&gt;Frontend Application&lt;/b&gt;" style="html=1;dropTarget=0;whiteSpace=wrap;" vertex="1" parent="1">
          <mxGeometry x="150" y="340" width="140" height="60" as="geometry" />
        </mxCell>
        <mxCell id="LTkT88SjbKarFFaRrxIB-6" value="" style="shape=module;jettyWidth=8;jettyHeight=4;" vertex="1" parent="LTkT88SjbKarFFaRrxIB-5">
          <mxGeometry x="1" width="20" height="20" relative="1" as="geometry">
            <mxPoint x="-27" y="7" as="offset" />
          </mxGeometry>
        </mxCell>
        <mxCell id="LTkT88SjbKarFFaRrxIB-10" value="Páginas HTML" style="shape=note2;boundedLbl=1;whiteSpace=wrap;html=1;size=25;verticalAlign=top;align=left;spacingLeft=5;whiteSpace=wrap;" vertex="1" parent="1">
          <mxGeometry x="380" y="280" width="100" height="60" as="geometry" />
        </mxCell>
        <mxCell id="LTkT88SjbKarFFaRrxIB-11" value="&amp;lt;&amp;lt;artifact&amp;gt;&amp;gt;" style="resizeWidth=1;part=1;html=1;strokeColor=none;fillColor=none;align=left;spacingLeft=5;whiteSpace=wrap;" vertex="1" parent="LTkT88SjbKarFFaRrxIB-10">
          <mxGeometry width="100" height="25" relative="1" as="geometry" />
        </mxCell>
        <mxCell id="LTkT88SjbKarFFaRrxIB-14" value="Scripts JS" style="shape=note2;boundedLbl=1;whiteSpace=wrap;html=1;size=25;verticalAlign=top;align=left;spacingLeft=5;whiteSpace=wrap;" vertex="1" parent="1">
          <mxGeometry x="380" y="350" width="100" height="60" as="geometry" />
        </mxCell>
        <mxCell id="LTkT88SjbKarFFaRrxIB-15" value="&amp;lt;&amp;lt;artifact&amp;gt;&amp;gt;" style="resizeWidth=1;part=1;html=1;strokeColor=none;fillColor=none;align=left;spacingLeft=5;whiteSpace=wrap;" vertex="1" parent="LTkT88SjbKarFFaRrxIB-14">
          <mxGeometry width="100" height="25" relative="1" as="geometry" />
        </mxCell>
        <mxCell id="LTkT88SjbKarFFaRrxIB-16" value="CSS" style="shape=note2;boundedLbl=1;whiteSpace=wrap;html=1;size=25;verticalAlign=top;align=left;spacingLeft=5;whiteSpace=wrap;" vertex="1" parent="1">
          <mxGeometry x="380" y="420" width="100" height="60" as="geometry" />
        </mxCell>
        <mxCell id="LTkT88SjbKarFFaRrxIB-17" value="&amp;lt;&amp;lt;artifact&amp;gt;&amp;gt;" style="resizeWidth=1;part=1;html=1;strokeColor=none;fillColor=none;align=left;spacingLeft=5;whiteSpace=wrap;" vertex="1" parent="LTkT88SjbKarFFaRrxIB-16">
          <mxGeometry width="100" height="25" relative="1" as="geometry" />
        </mxCell>
        <mxCell id="LTkT88SjbKarFFaRrxIB-19" style="edgeStyle=orthogonalEdgeStyle;rounded=0;orthogonalLoop=1;jettySize=auto;html=1;entryX=0;entryY=0.5;entryDx=0;entryDy=0;entryPerimeter=0;dashed=1;dashPattern=8 8;endArrow=open;endFill=0;" edge="1" parent="1" source="LTkT88SjbKarFFaRrxIB-5" target="LTkT88SjbKarFFaRrxIB-14">
          <mxGeometry relative="1" as="geometry" />
        </mxCell>
        <mxCell id="LTkT88SjbKarFFaRrxIB-39" style="edgeStyle=orthogonalEdgeStyle;rounded=0;orthogonalLoop=1;jettySize=auto;html=1;" edge="1" parent="1" source="LTkT88SjbKarFFaRrxIB-21" target="LTkT88SjbKarFFaRrxIB-33">
          <mxGeometry relative="1" as="geometry" />
        </mxCell>
        <mxCell id="LTkT88SjbKarFFaRrxIB-40" value="&amp;lt;&amp;lt;protocol&amp;gt;&amp;gt;&lt;div&gt;TCP/IP&lt;/div&gt;" style="edgeLabel;html=1;align=center;verticalAlign=middle;resizable=0;points=[];" vertex="1" connectable="0" parent="LTkT88SjbKarFFaRrxIB-39">
          <mxGeometry x="0.1091" relative="1" as="geometry">
            <mxPoint as="offset" />
          </mxGeometry>
        </mxCell>
        <mxCell id="LTkT88SjbKarFFaRrxIB-21" value="&amp;lt;&amp;lt;device&amp;gt;&amp;gt;srv-02: Proxmox" style="verticalAlign=top;align=left;spacingTop=8;spacingLeft=2;spacingRight=12;shape=cube;size=10;direction=south;fontStyle=4;html=1;whiteSpace=wrap;" vertex="1" parent="1">
          <mxGeometry x="650" y="200" width="400" height="280" as="geometry" />
        </mxCell>
        <mxCell id="LTkT88SjbKarFFaRrxIB-23" value="&amp;lt;&amp;lt;web server&amp;gt;&amp;gt; : Spring Boot / Tomcat" style="verticalAlign=top;align=left;spacingTop=8;spacingLeft=2;spacingRight=12;shape=cube;size=10;direction=south;fontStyle=4;html=1;whiteSpace=wrap;" vertex="1" parent="1">
          <mxGeometry x="682.5" y="251" width="335" height="200" as="geometry" />
        </mxCell>
        <mxCell id="LTkT88SjbKarFFaRrxIB-25" style="edgeStyle=orthogonalEdgeStyle;rounded=0;orthogonalLoop=1;jettySize=auto;html=1;entryX=0;entryY=0;entryDx=145;entryDy=400;entryPerimeter=0;" edge="1" parent="1" source="LTkT88SjbKarFFaRrxIB-2" target="LTkT88SjbKarFFaRrxIB-21">
          <mxGeometry relative="1" as="geometry" />
        </mxCell>
        <mxCell id="LTkT88SjbKarFFaRrxIB-26" value="&amp;lt;&amp;lt;protocol&amp;gt;&amp;gt;&lt;div&gt;TCP/IP&lt;/div&gt;" style="edgeLabel;html=1;align=center;verticalAlign=middle;resizable=0;points=[];" vertex="1" connectable="0" parent="LTkT88SjbKarFFaRrxIB-25">
          <mxGeometry x="-0.0375" y="2" relative="1" as="geometry">
            <mxPoint as="offset" />
          </mxGeometry>
        </mxCell>
        <mxCell id="LTkT88SjbKarFFaRrxIB-27" value="&amp;lt;&amp;lt;executionEnv&amp;gt;&amp;gt; : Catalina Servlet Container" style="verticalAlign=top;align=left;spacingTop=8;spacingLeft=2;spacingRight=12;shape=cube;size=10;direction=south;fontStyle=4;html=1;whiteSpace=wrap;" vertex="1" parent="1">
          <mxGeometry x="710" y="305" width="280" height="130" as="geometry" />
        </mxCell>
        <mxCell id="LTkT88SjbKarFFaRrxIB-28" value="«Component»&lt;br&gt;&lt;b&gt;Backend Application&lt;/b&gt;" style="html=1;dropTarget=0;whiteSpace=wrap;" vertex="1" parent="1">
          <mxGeometry x="730" y="355" width="140" height="60" as="geometry" />
        </mxCell>
        <mxCell id="LTkT88SjbKarFFaRrxIB-29" value="" style="shape=module;jettyWidth=8;jettyHeight=4;" vertex="1" parent="LTkT88SjbKarFFaRrxIB-28">
          <mxGeometry x="1" width="20" height="20" relative="1" as="geometry">
            <mxPoint x="-27" y="7" as="offset" />
          </mxGeometry>
        </mxCell>
        <mxCell id="LTkT88SjbKarFFaRrxIB-30" value="REST" style="html=1;rounded=0;" vertex="1" parent="1">
          <mxGeometry x="870" y="380" width="30" height="30" as="geometry" />
        </mxCell>
        <mxCell id="LTkT88SjbKarFFaRrxIB-31" value="" style="endArrow=none;html=1;rounded=0;align=center;verticalAlign=top;endFill=0;labelBackgroundColor=none;endSize=2;" edge="1" source="LTkT88SjbKarFFaRrxIB-30" target="LTkT88SjbKarFFaRrxIB-32" parent="1">
          <mxGeometry relative="1" as="geometry" />
        </mxCell>
        <mxCell id="LTkT88SjbKarFFaRrxIB-32" value="" style="ellipse;html=1;fontSize=11;align=center;fillColor=none;points=[];aspect=fixed;resizable=0;verticalAlign=bottom;labelPosition=center;verticalLabelPosition=top;flipH=1;" vertex="1" parent="1">
          <mxGeometry x="930" y="391" width="8" height="8" as="geometry" />
        </mxCell>
        <mxCell id="LTkT88SjbKarFFaRrxIB-33" value="&amp;lt;&amp;lt;device&amp;gt;&amp;gt;srv-03: Proxmox" style="verticalAlign=top;align=left;spacingTop=8;spacingLeft=2;spacingRight=12;shape=cube;size=10;direction=south;fontStyle=4;html=1;whiteSpace=wrap;" vertex="1" parent="1">
          <mxGeometry x="650" y="590" width="400" height="280" as="geometry" />
        </mxCell>
        <mxCell id="LTkT88SjbKarFFaRrxIB-34" value="&amp;lt;&amp;lt;database system&amp;gt;&amp;gt; : PostgreSQL" style="verticalAlign=top;align=left;spacingTop=8;spacingLeft=2;spacingRight=12;shape=cube;size=10;direction=south;fontStyle=4;html=1;whiteSpace=wrap;" vertex="1" parent="1">
          <mxGeometry x="682.5" y="650" width="335" height="200" as="geometry" />
        </mxCell>
        <mxCell id="LTkT88SjbKarFFaRrxIB-37" value="&amp;lt;&amp;lt;schema&amp;gt;&amp;gt;&lt;div&gt;MonGeDB&lt;/div&gt;" style="ellipse;shape=umlEntity;whiteSpace=wrap;html=1;" vertex="1" parent="1">
          <mxGeometry x="810" y="710" width="80" height="80" as="geometry" />
        </mxCell>
      </root>
    </mxGraphModel>
  </diagram>
</mxfile>
